<mxfile host="65bd71144e">
    <diagram id="ljYwNQDPt3FH-cLdp5G0" name="Page-1">
        <mxGraphModel dx="2695" dy="3210" grid="1" gridSize="10" guides="1" tooltips="1" connect="1" arrows="1" fold="1" page="1" pageScale="1" pageWidth="850" pageHeight="1100" math="0" shadow="0">
            <root>
                <mxCell id="0"/>
                <mxCell id="1" parent="0"/>
                <mxCell id="71" value="" style="rounded=0;whiteSpace=wrap;html=1;labelBackgroundColor=none;align=left;dashed=1;fillColor=#3333FF;" parent="1" vertex="1">
                    <mxGeometry x="-1670" y="-780" width="720" height="280" as="geometry"/>
                </mxCell>
                <mxCell id="70" value="" style="rounded=0;whiteSpace=wrap;html=1;labelBackgroundColor=none;align=left;dashed=1;fillColor=#3333FF;" parent="1" vertex="1">
                    <mxGeometry x="-870" y="-1080" width="830" height="1030" as="geometry"/>
                </mxCell>
                <mxCell id="29" style="edgeStyle=orthogonalEdgeStyle;rounded=0;orthogonalLoop=1;jettySize=auto;html=1;exitX=0.5;exitY=0;exitDx=0;exitDy=0;entryX=0.5;entryY=1;entryDx=0;entryDy=0;fontColor=#FFFFFF;endArrow=open;endFill=0;" parent="1" source="5" target="27" edge="1">
                    <mxGeometry relative="1" as="geometry"/>
                </mxCell>
                <mxCell id="30" style="edgeStyle=orthogonalEdgeStyle;rounded=0;orthogonalLoop=1;jettySize=auto;html=1;exitX=1;exitY=0.5;exitDx=0;exitDy=0;entryX=0;entryY=0.5;entryDx=0;entryDy=0;fontColor=#FFFFFF;endArrow=open;endFill=0;" parent="1" source="5" target="28" edge="1">
                    <mxGeometry relative="1" as="geometry"/>
                </mxCell>
                <mxCell id="5" value="Allow access for &#10;memepoke page" style="shape=image;verticalLabelPosition=bottom;labelBackgroundColor=none;verticalAlign=top;aspect=fixed;imageAspect=0;image=https://www.redditinc.com/assets/images/site/reddit-logo.png;fontColor=#FFFFFF;" parent="1" vertex="1">
                    <mxGeometry x="-1242" y="-632" width="82" height="82" as="geometry"/>
                </mxCell>
                <mxCell id="31" style="edgeStyle=orthogonalEdgeStyle;rounded=0;orthogonalLoop=1;jettySize=auto;html=1;exitX=1;exitY=0.5;exitDx=0;exitDy=0;entryX=0;entryY=0.5;entryDx=0;entryDy=0;fontColor=#FFFFFF;endArrow=open;endFill=0;" parent="1" source="6" target="24" edge="1">
                    <mxGeometry relative="1" as="geometry"/>
                </mxCell>
                <mxCell id="6" value="Login&lt;br&gt;Page" style="ellipse;whiteSpace=wrap;html=1;aspect=fixed;" parent="1" vertex="1">
                    <mxGeometry x="-1650" y="-630" width="80" height="80" as="geometry"/>
                </mxCell>
                <mxCell id="69" value="revoke token" style="edgeStyle=orthogonalEdgeStyle;rounded=0;orthogonalLoop=1;jettySize=auto;html=1;exitX=0.5;exitY=1;exitDx=0;exitDy=0;entryX=0.5;entryY=0;entryDx=0;entryDy=0;fontColor=#FFFFFF;startArrow=none;startFill=0;endArrow=open;endFill=0;" parent="1" source="7" target="67" edge="1">
                    <mxGeometry relative="1" as="geometry"/>
                </mxCell>
                <mxCell id="73" style="edgeStyle=orthogonalEdgeStyle;rounded=0;orthogonalLoop=1;jettySize=auto;html=1;exitX=1;exitY=0.5;exitDx=0;exitDy=0;entryX=0.5;entryY=0.5;entryDx=0;entryDy=-40;fontColor=#FFFFFF;startArrow=none;startFill=0;endArrow=open;endFill=0;entryPerimeter=0;" parent="1" source="7" target="75" edge="1">
                    <mxGeometry relative="1" as="geometry">
                        <mxPoint x="80" y="-590" as="targetPoint"/>
                    </mxGeometry>
                </mxCell>
                <mxCell id="7" value="MemePoke&lt;br&gt;Page" style="ellipse;whiteSpace=wrap;html=1;aspect=fixed;" parent="1" vertex="1">
                    <mxGeometry x="-295" y="-630" width="80" height="80" as="geometry"/>
                </mxCell>
                <mxCell id="49" style="edgeStyle=orthogonalEdgeStyle;rounded=0;orthogonalLoop=1;jettySize=auto;html=1;exitX=1;exitY=0.5;exitDx=0;exitDy=0;entryX=0.5;entryY=1;entryDx=0;entryDy=0;fontColor=#FFFFFF;startArrow=none;startFill=0;endArrow=open;endFill=0;" parent="1" source="10" target="45" edge="1">
                    <mxGeometry relative="1" as="geometry"/>
                </mxCell>
                <mxCell id="10" value="reddit api:&#10;code to token" style="shape=image;verticalLabelPosition=bottom;labelBackgroundColor=none;verticalAlign=top;aspect=fixed;imageAspect=0;image=https://www.redditinc.com/assets/images/site/reddit-logo.png;fontColor=#FFFFFF;" parent="1" vertex="1">
                    <mxGeometry x="-701" y="-240" width="82" height="82" as="geometry"/>
                </mxCell>
                <mxCell id="57" style="edgeStyle=orthogonalEdgeStyle;rounded=0;orthogonalLoop=1;jettySize=auto;html=1;exitX=1;exitY=0.5;exitDx=0;exitDy=0;fontColor=#FFFFFF;startArrow=none;startFill=0;endArrow=open;endFill=0;entryX=0.5;entryY=0;entryDx=0;entryDy=0;" parent="1" source="15" target="53" edge="1">
                    <mxGeometry relative="1" as="geometry"/>
                </mxCell>
                <mxCell id="15" value="reddit api:&#10;get username" style="shape=image;verticalLabelPosition=bottom;labelBackgroundColor=none;verticalAlign=top;aspect=fixed;imageAspect=0;image=https://www.redditinc.com/assets/images/site/reddit-logo.png;fontColor=#FFFFFF;" parent="1" vertex="1">
                    <mxGeometry x="-507" y="-1080" width="82" height="82" as="geometry"/>
                </mxCell>
                <mxCell id="48" value="get auth token" style="edgeStyle=orthogonalEdgeStyle;rounded=0;orthogonalLoop=1;jettySize=auto;html=1;exitX=0.5;exitY=1;exitDx=0;exitDy=0;entryX=0.5;entryY=0;entryDx=0;entryDy=0;fontColor=#FFFFFF;startArrow=none;startFill=0;endArrow=open;endFill=0;" parent="1" source="17" target="46" edge="1">
                    <mxGeometry relative="1" as="geometry"/>
                </mxCell>
                <mxCell id="55" style="edgeStyle=orthogonalEdgeStyle;rounded=0;orthogonalLoop=1;jettySize=auto;html=1;exitX=1;exitY=0.5;exitDx=0;exitDy=0;entryX=0;entryY=0.5;entryDx=0;entryDy=0;fontColor=#FFFFFF;startArrow=none;startFill=0;endArrow=open;endFill=0;" parent="1" source="17" target="43" edge="1">
                    <mxGeometry relative="1" as="geometry"/>
                </mxCell>
                <mxCell id="17" value="MemePoke&lt;br&gt;Page" style="ellipse;whiteSpace=wrap;html=1;aspect=fixed;" parent="1" vertex="1">
                    <mxGeometry x="-700" y="-631" width="80" height="80" as="geometry"/>
                </mxCell>
                <mxCell id="26" style="edgeStyle=orthogonalEdgeStyle;rounded=0;orthogonalLoop=1;jettySize=auto;html=1;exitX=1;exitY=0.5;exitDx=0;exitDy=0;entryX=0;entryY=0.5;entryDx=0;entryDy=0;fontColor=#FFFFFF;endArrow=open;endFill=0;" parent="1" source="24" target="5" edge="1">
                    <mxGeometry relative="1" as="geometry"/>
                </mxCell>
                <mxCell id="24" value="redirect URL:&lt;br&gt;&lt;font style=&quot;font-size: 9px&quot;&gt;https://www.reddit.com/api/v1/authorize?&lt;br&gt;client_id=WI5Q-r9Nu3EjSxIjz5SzEA&amp;amp;&lt;br&gt;response_type=code&amp;amp;&lt;br&gt;state=RANDOMSTRING&amp;amp;&lt;br&gt;redirect_uri=http://127.0.0.1:8080/memepoke&amp;amp;&lt;br&gt;duration=temporary&amp;amp;&lt;br&gt;scope=identity&lt;/font&gt;" style="rounded=0;whiteSpace=wrap;html=1;labelBackgroundColor=none;fontColor=#FFFFFF;align=center;" parent="1" vertex="1">
                    <mxGeometry x="-1510" y="-651" width="208" height="120" as="geometry"/>
                </mxCell>
                <mxCell id="39" style="edgeStyle=orthogonalEdgeStyle;rounded=0;orthogonalLoop=1;jettySize=auto;html=1;exitX=0;exitY=0.5;exitDx=0;exitDy=0;entryX=1;entryY=0.5;entryDx=0;entryDy=0;fontColor=#FFFFFF;startArrow=none;startFill=0;endArrow=open;endFill=0;" parent="1" source="27" target="38" edge="1">
                    <mxGeometry relative="1" as="geometry"/>
                </mxCell>
                <mxCell id="27" value="redirect URL:&lt;br&gt;&lt;font style=&quot;font-size: 9px&quot;&gt;/memepoke?&lt;/font&gt;&lt;div style=&quot;font-size: 9px&quot;&gt;&lt;font style=&quot;font-size: 9px&quot;&gt;state={}&amp;amp;&lt;/font&gt;&lt;/div&gt;&lt;div style=&quot;font-size: 9px&quot;&gt;&lt;font style=&quot;font-size: 9px&quot;&gt;error=access_denied&lt;/font&gt;&lt;/div&gt;&lt;div style=&quot;font-size: 9px&quot;&gt;&lt;font style=&quot;font-size: 9px&quot;&gt;#_&lt;/font&gt;&lt;/div&gt;" style="rounded=0;whiteSpace=wrap;html=1;labelBackgroundColor=none;fontColor=#FFFFFF;align=center;" parent="1" vertex="1">
                    <mxGeometry x="-1266" y="-760" width="130" height="80" as="geometry"/>
                </mxCell>
                <mxCell id="32" style="edgeStyle=orthogonalEdgeStyle;rounded=0;orthogonalLoop=1;jettySize=auto;html=1;exitX=1;exitY=0.5;exitDx=0;exitDy=0;entryX=0;entryY=0.5;entryDx=0;entryDy=0;fontColor=#FFFFFF;endArrow=open;endFill=0;" parent="1" source="28" target="17" edge="1">
                    <mxGeometry relative="1" as="geometry"/>
                </mxCell>
                <mxCell id="28" value="redirect URL:&lt;br&gt;&lt;font style=&quot;font-size: 9px&quot;&gt;&lt;font style=&quot;font-size: 9px&quot;&gt;/&lt;/font&gt;&lt;font style=&quot;font-size: 9px&quot;&gt;memepoke?&lt;/font&gt;&lt;/font&gt;&lt;div style=&quot;font-size: 9px&quot;&gt;&lt;font style=&quot;font-size: 9px&quot;&gt;state={}&amp;amp;&lt;/font&gt;&lt;/div&gt;&lt;div style=&quot;font-size: 9px&quot;&gt;&lt;font style=&quot;font-size: 9px&quot;&gt;code={}&lt;/font&gt;&lt;/div&gt;&lt;div style=&quot;font-size: 9px&quot;&gt;&lt;font style=&quot;font-size: 9px&quot;&gt;#_&lt;/font&gt;&lt;/div&gt;" style="rounded=0;whiteSpace=wrap;html=1;labelBackgroundColor=none;fontColor=#FFFFFF;align=center;" parent="1" vertex="1">
                    <mxGeometry x="-1100" y="-632" width="130" height="81" as="geometry"/>
                </mxCell>
                <mxCell id="40" style="edgeStyle=orthogonalEdgeStyle;rounded=0;orthogonalLoop=1;jettySize=auto;html=1;exitX=0;exitY=0.5;exitDx=0;exitDy=0;entryX=1;entryY=0.5;entryDx=0;entryDy=0;fontColor=#FFFFFF;startArrow=none;startFill=0;endArrow=open;endFill=0;" parent="1" source="38" target="41" edge="1">
                    <mxGeometry relative="1" as="geometry"/>
                </mxCell>
                <mxCell id="38" value="denied&lt;br&gt;page" style="ellipse;whiteSpace=wrap;html=1;aspect=fixed;" parent="1" vertex="1">
                    <mxGeometry x="-1450" y="-760" width="80" height="80" as="geometry"/>
                </mxCell>
                <mxCell id="42" style="edgeStyle=orthogonalEdgeStyle;rounded=0;orthogonalLoop=1;jettySize=auto;html=1;exitX=0;exitY=0.5;exitDx=0;exitDy=0;entryX=0.5;entryY=0;entryDx=0;entryDy=0;fontColor=#FFFFFF;startArrow=none;startFill=0;endArrow=open;endFill=0;" parent="1" source="41" target="6" edge="1">
                    <mxGeometry relative="1" as="geometry"/>
                </mxCell>
                <mxCell id="41" value="HYPERLINK" style="rounded=0;whiteSpace=wrap;html=1;labelBackgroundColor=none;fontColor=#FFFFFF;align=center;" parent="1" vertex="1">
                    <mxGeometry x="-1590" y="-740" width="100" height="40" as="geometry"/>
                </mxCell>
                <mxCell id="60" value="get username" style="edgeStyle=orthogonalEdgeStyle;rounded=0;orthogonalLoop=1;jettySize=auto;html=1;exitX=0.5;exitY=0;exitDx=0;exitDy=0;entryX=0.5;entryY=1;entryDx=0;entryDy=0;fontColor=#FFFFFF;startArrow=none;startFill=0;endArrow=open;endFill=0;" parent="1" source="43" target="54" edge="1">
                    <mxGeometry relative="1" as="geometry"/>
                </mxCell>
                <mxCell id="61" style="edgeStyle=orthogonalEdgeStyle;rounded=0;orthogonalLoop=1;jettySize=auto;html=1;exitX=1;exitY=0.5;exitDx=0;exitDy=0;entryX=0;entryY=0.5;entryDx=0;entryDy=0;fontColor=#FFFFFF;startArrow=none;startFill=0;endArrow=open;endFill=0;" parent="1" source="43" target="7" edge="1">
                    <mxGeometry relative="1" as="geometry"/>
                </mxCell>
                <mxCell id="43" value="MemePoke&lt;br&gt;Page" style="ellipse;whiteSpace=wrap;html=1;aspect=fixed;" parent="1" vertex="1">
                    <mxGeometry x="-505" y="-630" width="80" height="80" as="geometry"/>
                </mxCell>
                <mxCell id="47" value="" style="group" parent="1" vertex="1" connectable="0">
                    <mxGeometry x="-855" y="-490" width="390" height="180" as="geometry"/>
                </mxCell>
                <mxCell id="44" value="&lt;span style=&quot;font-size: 9px&quot;&gt;https://www.reddit.com/api/v1/access_token&lt;br&gt;&lt;br&gt;HTTP Basic Auth Header: &lt;br&gt;user=&lt;/span&gt;&lt;span style=&quot;font-size: 9px&quot;&gt;WI5Q-r9Nu3EjSxIjz5SzEA&lt;br&gt;password=&lt;br&gt;&lt;br&gt;&lt;/span&gt;&lt;span style=&quot;font-size: 9px&quot;&gt;Body:&lt;br&gt;&lt;/span&gt;&lt;span style=&quot;font-size: 9px&quot;&gt;grant_type=authorization_code&lt;/span&gt;&lt;br style=&quot;font-size: 9px&quot;&gt;&lt;span style=&quot;font-size: 9px&quot;&gt;code={code}&lt;/span&gt;&lt;br style=&quot;font-size: 9px&quot;&gt;&lt;span style=&quot;font-size: 9px&quot;&gt;redirect_uri={redirect URL}&lt;/span&gt;&lt;span style=&quot;font-size: 9px&quot;&gt;&lt;br&gt;&lt;/span&gt;" style="rounded=0;whiteSpace=wrap;html=1;labelBackgroundColor=none;fontColor=#FFFFFF;align=left;" parent="47" vertex="1">
                    <mxGeometry y="30" width="195" height="150" as="geometry"/>
                </mxCell>
                <mxCell id="45" value="&lt;font style=&quot;font-size: 9px&quot;&gt;{&lt;br&gt;&amp;nbsp; &amp;nbsp; &quot;access_token&quot;: Your access token,&lt;br&gt;&amp;nbsp; &amp;nbsp; &quot;token_type&quot;: &quot;bearer&quot;,&lt;br&gt;&amp;nbsp; &amp;nbsp; &quot;expires_in&quot;: Unix Epoch Seconds,&lt;br&gt;&amp;nbsp; &amp;nbsp; &quot;scope&quot;: A scope string,&lt;br&gt;&amp;nbsp; &amp;nbsp; &quot;refresh_token&quot;: Your refresh token&lt;br&gt;}&lt;/font&gt;" style="rounded=0;whiteSpace=wrap;html=1;labelBackgroundColor=none;fontColor=#FFFFFF;align=left;" parent="47" vertex="1">
                    <mxGeometry x="195" y="30" width="195" height="150" as="geometry"/>
                </mxCell>
                <mxCell id="46" value="POST" style="rounded=0;whiteSpace=wrap;html=1;labelBackgroundColor=none;fontColor=#FFFFFF;align=center;" parent="47" vertex="1">
                    <mxGeometry width="390" height="30" as="geometry"/>
                </mxCell>
                <mxCell id="50" style="edgeStyle=orthogonalEdgeStyle;rounded=0;orthogonalLoop=1;jettySize=auto;html=1;exitX=0.5;exitY=1;exitDx=0;exitDy=0;entryX=0;entryY=0.5;entryDx=0;entryDy=0;fontColor=#FFFFFF;startArrow=none;startFill=0;endArrow=open;endFill=0;" parent="1" source="44" target="10" edge="1">
                    <mxGeometry relative="1" as="geometry"/>
                </mxCell>
                <mxCell id="56" style="edgeStyle=orthogonalEdgeStyle;rounded=0;orthogonalLoop=1;jettySize=auto;html=1;entryX=0;entryY=0.5;entryDx=0;entryDy=0;fontColor=#FFFFFF;startArrow=none;startFill=0;endArrow=open;endFill=0;exitX=0.5;exitY=0;exitDx=0;exitDy=0;" parent="1" source="52" target="15" edge="1">
                    <mxGeometry relative="1" as="geometry"/>
                </mxCell>
                <mxCell id="62" style="edgeStyle=orthogonalEdgeStyle;rounded=0;orthogonalLoop=1;jettySize=auto;html=1;exitX=1;exitY=0.5;exitDx=0;exitDy=0;entryX=0.5;entryY=1;entryDx=0;entryDy=0;fontColor=#FFFFFF;startArrow=none;startFill=0;endArrow=open;endFill=0;" parent="1" source="63" target="66" edge="1">
                    <mxGeometry relative="1" as="geometry"/>
                </mxCell>
                <mxCell id="63" value="reddit api:&#10;revoke token" style="shape=image;verticalLabelPosition=bottom;labelBackgroundColor=none;verticalAlign=top;aspect=fixed;imageAspect=0;image=https://www.redditinc.com/assets/images/site/reddit-logo.png;fontColor=#FFFFFF;" parent="1" vertex="1">
                    <mxGeometry x="-296" y="-240" width="82" height="82" as="geometry"/>
                </mxCell>
                <mxCell id="64" value="" style="group" parent="1" vertex="1" connectable="0">
                    <mxGeometry x="-450" y="-490" width="390" height="180" as="geometry"/>
                </mxCell>
                <mxCell id="65" value="&lt;span style=&quot;text-align: left ; text-indent: 0px ; background-color: rgb(42 , 42 , 42)&quot;&gt;&lt;font face=&quot;helvetica&quot; size=&quot;1&quot;&gt;https://www.reddit.com/api/v1/revoke_token&lt;/font&gt;&lt;br&gt;&lt;br&gt;&lt;font face=&quot;helvetica&quot; size=&quot;1&quot;&gt;HTTP Basic Auth Header:&lt;/font&gt;&lt;br&gt;&lt;font face=&quot;helvetica&quot; size=&quot;1&quot;&gt;user=&lt;/font&gt;&lt;/span&gt;&lt;span style=&quot;color: rgb(255 , 255 , 255) ; font-family: &amp;#34;helvetica&amp;#34; ; font-style: normal ; font-weight: 400 ; letter-spacing: normal ; text-align: left ; text-indent: 0px ; text-transform: none ; word-spacing: 0px ; background-color: rgb(42 , 42 , 42) ; font-size: 9px&quot;&gt;WI5Q-r9Nu3EjSxIjz5SzEA&lt;br&gt;password=&lt;br&gt;&lt;br&gt;&lt;/span&gt;&lt;div&gt;&lt;font face=&quot;helvetica&quot; size=&quot;1&quot;&gt;token=TOKEN&lt;/font&gt;&lt;/div&gt;&lt;div&gt;&lt;font face=&quot;helvetica&quot; size=&quot;1&quot;&gt;token_type_hint=TOKEN_TYPE&lt;/font&gt;&lt;/div&gt;" style="rounded=0;whiteSpace=wrap;html=1;labelBackgroundColor=none;fontColor=#FFFFFF;align=left;" parent="64" vertex="1">
                    <mxGeometry y="30" width="195" height="150" as="geometry"/>
                </mxCell>
                <mxCell id="66" value="" style="rounded=0;whiteSpace=wrap;html=1;labelBackgroundColor=none;fontColor=#FFFFFF;align=left;" parent="64" vertex="1">
                    <mxGeometry x="195" y="30" width="195" height="150" as="geometry"/>
                </mxCell>
                <mxCell id="67" value="POST" style="rounded=0;whiteSpace=wrap;html=1;labelBackgroundColor=none;fontColor=#FFFFFF;align=center;" parent="64" vertex="1">
                    <mxGeometry width="390" height="30" as="geometry"/>
                </mxCell>
                <mxCell id="68" style="edgeStyle=orthogonalEdgeStyle;rounded=0;orthogonalLoop=1;jettySize=auto;html=1;exitX=0.5;exitY=1;exitDx=0;exitDy=0;entryX=0;entryY=0.5;entryDx=0;entryDy=0;fontColor=#FFFFFF;startArrow=none;startFill=0;endArrow=open;endFill=0;" parent="1" source="65" target="63" edge="1">
                    <mxGeometry relative="1" as="geometry"/>
                </mxCell>
                <mxCell id="78" value="" style="group" parent="1" vertex="1" connectable="0">
                    <mxGeometry x="60" y="-1115" width="130" height="1050" as="geometry"/>
                </mxCell>
                <mxCell id="75" value="" style="html=1;dashed=0;whitespace=wrap;shape=mxgraph.dfd.start;labelBackgroundColor=none;fontColor=#FFFFFF;fillColor=#2a2a2a;align=left;rotation=-90;textDirection=ltr;" parent="78" vertex="1">
                    <mxGeometry x="-471.25" y="461.3636363636364" width="1072.5" height="127.27272727272728" as="geometry"/>
                </mxCell>
                <mxCell id="76" value="&#10;&#10;&lt;span style=&quot;color: rgb(240, 240, 240); font-family: helvetica; font-size: 12px; font-style: normal; font-weight: 400; letter-spacing: normal; text-align: center; text-indent: 0px; text-transform: none; word-spacing: 0px; background-color: rgb(42, 42, 42); display: inline; float: none;&quot;&gt;MemePoke&lt;/span&gt;&lt;br style=&quot;color: rgb(240, 240, 240); font-family: helvetica; font-size: 12px; font-style: normal; font-weight: 400; letter-spacing: normal; text-align: center; text-indent: 0px; text-transform: none; word-spacing: 0px; background-color: rgb(42, 42, 42);&quot;&gt;&lt;span style=&quot;color: rgb(240, 240, 240); font-family: helvetica; font-size: 12px; font-style: normal; font-weight: 400; letter-spacing: normal; text-align: center; text-indent: 0px; text-transform: none; word-spacing: 0px; background-color: rgb(42, 42, 42); display: inline; float: none;&quot;&gt;Page&lt;/span&gt;&#10;&#10;" style="text;html=1;strokeColor=none;fillColor=none;align=center;verticalAlign=middle;whiteSpace=wrap;rounded=0;labelBackgroundColor=none;fontColor=#FFFFFF;" parent="78" vertex="1">
                    <mxGeometry x="16.25" y="509.0909090909091" width="97.5" height="79.54545454545455" as="geometry"/>
                </mxCell>
                <mxCell id="79" value="" style="group" parent="1" vertex="1" connectable="0">
                    <mxGeometry x="1120" y="-930" width="80" height="660" as="geometry"/>
                </mxCell>
                <mxCell id="80" value="" style="html=1;dashed=0;whitespace=wrap;shape=mxgraph.dfd.start;labelBackgroundColor=none;fontColor=#FFFFFF;fillColor=#2a2a2a;align=left;rotation=-90;textDirection=ltr;" parent="79" vertex="1">
                    <mxGeometry x="-290" y="290" width="660" height="80" as="geometry"/>
                </mxCell>
                <mxCell id="81" value="MemePoke&lt;br&gt;Server" style="text;html=1;strokeColor=none;fillColor=none;align=center;verticalAlign=middle;whiteSpace=wrap;rounded=0;labelBackgroundColor=none;fontColor=#FFFFFF;" parent="79" vertex="1">
                    <mxGeometry x="10" y="320" width="60" height="50" as="geometry"/>
                </mxCell>
                <mxCell id="54" value="GET" style="rounded=0;whiteSpace=wrap;html=1;labelBackgroundColor=none;fontColor=#FFFFFF;align=center;" parent="1" vertex="1">
                    <mxGeometry x="-660" y="-750" width="390" height="30" as="geometry"/>
                </mxCell>
                <mxCell id="52" value="&lt;font size=&quot;1&quot;&gt;https://oauth.reddit.com/api/v1/me&lt;br&gt;&lt;br&gt;header:&lt;br&gt;Authorization: bearer {auth_token}&lt;br&gt;User_agent: &quot;MemePoke by ...&quot;&lt;br&gt;&lt;br&gt;&lt;/font&gt;" style="rounded=0;whiteSpace=wrap;html=1;labelBackgroundColor=none;fontColor=#FFFFFF;align=left;" parent="1" vertex="1">
                    <mxGeometry x="-660" y="-950" width="195" height="200" as="geometry"/>
                </mxCell>
                <mxCell id="53" value="&lt;div&gt;{&lt;/div&gt;&lt;div&gt;&amp;nbsp; &amp;nbsp; &quot;comment_karma&quot;: 0,&amp;nbsp;&lt;/div&gt;&lt;div&gt;&amp;nbsp; &amp;nbsp; &quot;created&quot;: 1389649907.0,&amp;nbsp;&lt;/div&gt;&lt;div&gt;&amp;nbsp; &amp;nbsp; &quot;created_utc&quot;: 1389649907.0,&amp;nbsp;&lt;/div&gt;&lt;div&gt;&amp;nbsp; &amp;nbsp; &quot;has_mail&quot;: false,&amp;nbsp;&lt;/div&gt;&lt;div&gt;&amp;nbsp; &amp;nbsp; &quot;has_mod_mail&quot;: false,&amp;nbsp;&lt;/div&gt;&lt;div&gt;&amp;nbsp; &amp;nbsp; &quot;has_verified_email&quot;: null,&amp;nbsp;&lt;/div&gt;&lt;div&gt;&amp;nbsp; &amp;nbsp; &quot;id&quot;: &quot;1&quot;,&amp;nbsp;&lt;/div&gt;&lt;div&gt;&amp;nbsp; &amp;nbsp; &quot;is_gold&quot;: false,&amp;nbsp;&lt;/div&gt;&lt;div&gt;&amp;nbsp; &amp;nbsp; &quot;is_mod&quot;: true,&amp;nbsp;&lt;/div&gt;&lt;div&gt;&amp;nbsp; &amp;nbsp; &quot;link_karma&quot;: 1,&amp;nbsp;&lt;/div&gt;&lt;div&gt;&amp;nbsp; &amp;nbsp; &quot;name&quot;: &quot;reddit_bot&quot;,&amp;nbsp;&lt;/div&gt;&lt;div&gt;&amp;nbsp; &amp;nbsp; &quot;over_18&quot;: true&lt;/div&gt;&lt;div&gt;}&lt;/div&gt;" style="rounded=0;whiteSpace=wrap;html=1;labelBackgroundColor=none;fontColor=#FFFFFF;align=left;" parent="1" vertex="1">
                    <mxGeometry x="-465" y="-950" width="195" height="200" as="geometry"/>
                </mxCell>
                <mxCell id="82" value="" style="group" parent="1" vertex="1" connectable="0">
                    <mxGeometry x="360" y="-1210" width="390" height="180" as="geometry"/>
                </mxCell>
                <mxCell id="83" value="/loginuser&lt;br&gt;&amp;amp;user={username}&lt;br&gt;&amp;amp;token={authtoken}" style="rounded=0;whiteSpace=wrap;html=1;labelBackgroundColor=none;fontColor=#FFFFFF;align=left;" parent="82" vertex="1">
                    <mxGeometry y="30" width="195" height="150" as="geometry"/>
                </mxCell>
                <mxCell id="84" value="{&lt;br&gt;description: String&lt;br&gt;}" style="rounded=0;whiteSpace=wrap;html=1;labelBackgroundColor=none;fontColor=#FFFFFF;align=left;" parent="82" vertex="1">
                    <mxGeometry x="195" y="30" width="195" height="150" as="geometry"/>
                </mxCell>
                <mxCell id="85" value="Get User: GET" style="rounded=0;whiteSpace=wrap;html=1;labelBackgroundColor=none;fontColor=#FFFFFF;align=center;" parent="82" vertex="1">
                    <mxGeometry y="1" width="390" height="30" as="geometry"/>
                </mxCell>
                <mxCell id="86" value="" style="group" parent="1" vertex="1" connectable="0">
                    <mxGeometry x="360" y="-970" width="390" height="180" as="geometry"/>
                </mxCell>
                <mxCell id="87" value="&lt;span&gt;/getsocial&lt;br&gt;&amp;amp;user={username}&lt;br&gt;&amp;amp;token={authtoken}&lt;/span&gt;" style="rounded=0;whiteSpace=wrap;html=1;labelBackgroundColor=none;fontColor=#FFFFFF;align=left;" parent="86" vertex="1">
                    <mxGeometry y="30" width="195" height="150" as="geometry"/>
                </mxCell>
                <mxCell id="88" value="{&lt;br&gt;requests: vec![Users]&lt;br&gt;requested: vec![Users]&lt;br&gt;friends: vec![Users]&lt;br&gt;}" style="rounded=0;whiteSpace=wrap;html=1;labelBackgroundColor=none;fontColor=#FFFFFF;align=left;" parent="86" vertex="1">
                    <mxGeometry x="195" y="30" width="195" height="150" as="geometry"/>
                </mxCell>
                <mxCell id="89" value="Get Social: GET" style="rounded=0;whiteSpace=wrap;html=1;labelBackgroundColor=none;fontColor=#FFFFFF;align=center;" parent="86" vertex="1">
                    <mxGeometry width="390" height="30" as="geometry"/>
                </mxCell>
                <mxCell id="90" value="" style="group" parent="1" vertex="1" connectable="0">
                    <mxGeometry x="360" y="-470" width="390" height="180" as="geometry"/>
                </mxCell>
                <mxCell id="91" value="/getmatch&lt;br&gt;&amp;amp;user={username}&lt;br&gt;&amp;amp;token={authtoken}" style="rounded=0;whiteSpace=wrap;html=1;labelBackgroundColor=none;fontColor=#FFFFFF;align=left;" parent="90" vertex="1">
                    <mxGeometry y="30" width="195" height="150" as="geometry"/>
                </mxCell>
                <mxCell id="92" value="Ok" style="rounded=0;whiteSpace=wrap;html=1;labelBackgroundColor=none;fontColor=#FFFFFF;align=left;" parent="90" vertex="1">
                    <mxGeometry x="195" y="30" width="195" height="150" as="geometry"/>
                </mxCell>
                <mxCell id="93" value="Get Match: GET" style="rounded=0;whiteSpace=wrap;html=1;labelBackgroundColor=none;fontColor=#FFFFFF;align=center;" parent="90" vertex="1">
                    <mxGeometry width="390" height="30" as="geometry"/>
                </mxCell>
                <mxCell id="94" value="" style="group" parent="1" vertex="1" connectable="0">
                    <mxGeometry x="360" y="-210" width="390" height="180" as="geometry"/>
                </mxCell>
                <mxCell id="95" value="&lt;span&gt;\getmeme&lt;br&gt;&amp;amp;user={username}&lt;br&gt;&amp;amp;token={authtoken}&lt;br&gt;&lt;/span&gt;" style="rounded=0;whiteSpace=wrap;html=1;labelBackgroundColor=none;fontColor=#FFFFFF;align=left;" parent="94" vertex="1">
                    <mxGeometry y="30" width="195" height="150" as="geometry"/>
                </mxCell>
                <mxCell id="96" value="&lt;br&gt;{id: u64,&lt;br&gt;post_url : String&lt;br&gt;image_url : String&lt;br&gt;}" style="rounded=0;whiteSpace=wrap;html=1;labelBackgroundColor=none;fontColor=#FFFFFF;align=left;" parent="94" vertex="1">
                    <mxGeometry x="195" y="30" width="195" height="150" as="geometry"/>
                </mxCell>
                <mxCell id="97" value="Get Meme: GET" style="rounded=0;whiteSpace=wrap;html=1;labelBackgroundColor=none;fontColor=#FFFFFF;align=center;" parent="94" vertex="1">
                    <mxGeometry width="390" height="30" as="geometry"/>
                </mxCell>
                <mxCell id="98" value="" style="group" parent="1" vertex="1" connectable="0">
                    <mxGeometry x="360" y="30" width="390" height="180" as="geometry"/>
                </mxCell>
                <mxCell id="99" value="\reactmeme&lt;br&gt;&amp;amp;user={username}&lt;br&gt;&amp;amp;token={authtoken}&lt;br&gt;&amp;amp;meme={memeid}&lt;br&gt;&amp;amp;react={reaction}" style="rounded=0;whiteSpace=wrap;html=1;labelBackgroundColor=none;fontColor=#FFFFFF;align=left;" parent="98" vertex="1">
                    <mxGeometry y="30" width="195" height="150" as="geometry"/>
                </mxCell>
                <mxCell id="100" value="Ok" style="rounded=0;whiteSpace=wrap;html=1;labelBackgroundColor=none;fontColor=#FFFFFF;align=left;" parent="98" vertex="1">
                    <mxGeometry x="195" y="30" width="195" height="150" as="geometry"/>
                </mxCell>
                <mxCell id="101" value="React Meme: POST" style="rounded=0;whiteSpace=wrap;html=1;labelBackgroundColor=none;fontColor=#FFFFFF;align=center;" parent="98" vertex="1">
                    <mxGeometry width="390" height="30" as="geometry"/>
                </mxCell>
                <mxCell id="102" value="" style="group" parent="1" vertex="1" connectable="0">
                    <mxGeometry x="360" y="-730" width="390" height="180" as="geometry"/>
                </mxCell>
                <mxCell id="103" value="&lt;span style=&quot;color: rgb(255 , 255 , 255) ; font-family: &amp;#34;helvetica&amp;#34; ; font-size: 12px ; font-style: normal ; font-weight: 400 ; letter-spacing: normal ; text-align: left ; text-indent: 0px ; text-transform: none ; word-spacing: 0px ; background-color: rgb(42 , 42 , 42) ; display: inline ; float: none&quot;&gt;/setsocial&lt;br&gt;&amp;amp;user={username}&lt;br&gt;&amp;amp;token={authtoken}&lt;br&gt;&amp;amp;action={action}&lt;br&gt;&amp;amp;other={otheruser}&lt;/span&gt;" style="rounded=0;whiteSpace=wrap;html=1;labelBackgroundColor=none;fontColor=#FFFFFF;align=left;" parent="102" vertex="1">
                    <mxGeometry y="30" width="195" height="150" as="geometry"/>
                </mxCell>
                <mxCell id="104" value="Ok" style="rounded=0;whiteSpace=wrap;html=1;labelBackgroundColor=none;fontColor=#FFFFFF;align=left;" parent="102" vertex="1">
                    <mxGeometry x="195" y="30" width="195" height="150" as="geometry"/>
                </mxCell>
                <mxCell id="105" value="Set Social: GET" style="rounded=0;whiteSpace=wrap;html=1;labelBackgroundColor=none;fontColor=#FFFFFF;align=center;" parent="102" vertex="1">
                    <mxGeometry width="390" height="30" as="geometry"/>
                </mxCell>
                <mxCell id="106" value="" style="group" parent="1" vertex="1" connectable="0">
                    <mxGeometry x="360" y="-1440" width="390" height="180" as="geometry"/>
                </mxCell>
                <mxCell id="107" value="/updatedescr&lt;br&gt;&amp;amp;user={username}&lt;br&gt;&amp;amp;token={authtoken}&lt;br&gt;&amp;amp;descr={description}" style="rounded=0;whiteSpace=wrap;html=1;labelBackgroundColor=none;fontColor=#FFFFFF;align=left;" parent="106" vertex="1">
                    <mxGeometry y="30" width="195" height="150" as="geometry"/>
                </mxCell>
                <mxCell id="108" value="Ok" style="rounded=0;whiteSpace=wrap;html=1;labelBackgroundColor=none;fontColor=#FFFFFF;align=left;" parent="106" vertex="1">
                    <mxGeometry x="195" y="30" width="195" height="150" as="geometry"/>
                </mxCell>
                <mxCell id="109" value="Update Description: GET" style="rounded=0;whiteSpace=wrap;html=1;labelBackgroundColor=none;fontColor=#FFFFFF;align=center;" parent="106" vertex="1">
                    <mxGeometry y="1" width="390" height="30" as="geometry"/>
                </mxCell>
            </root>
        </mxGraphModel>
    </diagram>
</mxfile>